<?xml version="1.0" encoding="UTF-8"?>
<svg version="1.1" xmlns="http://www.w3.org/2000/svg" width="300" height="300">
<path d="M0 0 C99 0 198 0 300 0 C300 99 300 198 300 300 C201 300 102 300 0 300 C0 201 0 102 0 0 Z " fill="#FEFEFE" transform="translate(0,0)"/>
<path d="M0 0 C0.74647439 -0.00382555 1.49294877 -0.00765109 2.2620436 -0.01159257 C4.76466187 -0.02191561 7.26705041 -0.01793176 9.76968384 -0.01396179 C11.56347364 -0.01830868 13.35726158 -0.02349175 15.15104675 -0.02944946 C20.02504513 -0.04285394 24.89896604 -0.04341647 29.77297926 -0.04088616 C33.84110312 -0.03981732 37.90921126 -0.04469765 41.97733176 -0.04949158 C51.57495715 -0.06059202 61.17254341 -0.06102132 70.77017212 -0.05497742 C80.67221667 -0.04893769 90.57411912 -0.06124741 100.47613943 -0.08254749 C108.97646503 -0.10016026 117.47674539 -0.10616531 125.97708857 -0.10290974 C131.05443027 -0.10109605 136.13167063 -0.10374156 141.20899582 -0.11762428 C145.98441629 -0.13019252 150.75961524 -0.12826801 155.53503227 -0.11521339 C157.28697853 -0.11284579 159.03894032 -0.1155889 160.79086876 -0.12383652 C163.18416003 -0.13429035 165.57670616 -0.12621466 167.9699707 -0.11352539 C169.00772772 -0.12458682 169.00772772 -0.12458682 170.06644952 -0.13587171 C174.62914203 -0.08504598 177.72154062 0.89962113 181.61196899 3.26069641 C185.82436741 7.78786746 185.01180449 13.56916514 184.95254517 19.38496399 C184.95290677 20.52546802 184.95326838 21.66597204 184.95364094 22.8410368 C184.95140349 26.52927957 184.92856492 30.21706635 184.90493774 33.90522766 C184.90052639 36.18366782 184.89746616 38.46211101 184.89578247 40.74055481 C184.8800597 49.18481507 184.83817603 57.62901023 184.79946899 66.07319641 C184.73759399 84.94507141 184.67571899 103.81694641 184.61196899 123.26069641 C118.61196899 123.26069641 52.61196899 123.26069641 -15.38803101 123.26069641 C-15.47053101 104.40944641 -15.55303101 85.55819641 -15.63803101 66.13569641 C-15.67444702 60.18651184 -15.71086304 54.23732727 -15.74838257 48.10786438 C-15.76644897 40.8351593 -15.76644897 40.8351593 -15.76980591 37.42893982 C-15.7759425 35.05333967 -15.78999901 32.67775188 -15.81033325 30.30223083 C-15.83961658 26.70076397 -15.84365494 23.10005748 -15.84213257 19.49848938 C-15.856525 18.44271635 -15.87091743 17.38694332 -15.885746 16.29917717 C-15.85282531 10.48058926 -15.50346746 6.74851095 -11.38803101 2.26069641 C-7.80205668 -0.16642056 -4.18040786 -0.02269011 0 0 Z " fill="#010101" transform="translate(65.38803100585938,75.73930358886719)"/>
<path d="M0 0 C0.74647439 -0.00382555 1.49294877 -0.00765109 2.2620436 -0.01159257 C4.76466187 -0.02191561 7.26705041 -0.01793176 9.76968384 -0.01396179 C11.56347364 -0.01830868 13.35726158 -0.02349175 15.15104675 -0.02944946 C20.02504513 -0.04285394 24.89896604 -0.04341647 29.77297926 -0.04088616 C33.84110312 -0.03981732 37.90921126 -0.04469765 41.97733176 -0.04949158 C51.57495715 -0.06059202 61.17254341 -0.06102132 70.77017212 -0.05497742 C80.67221667 -0.04893769 90.57411912 -0.06124741 100.47613943 -0.08254749 C108.97646503 -0.10016026 117.47674539 -0.10616531 125.97708857 -0.10290974 C131.05443027 -0.10109605 136.13167063 -0.10374156 141.20899582 -0.11762428 C145.98441629 -0.13019252 150.75961524 -0.12826801 155.53503227 -0.11521339 C157.28697853 -0.11284579 159.03894032 -0.1155889 160.79086876 -0.12383652 C163.18416003 -0.13429035 165.57670616 -0.12621466 167.9699707 -0.11352539 C169.00772772 -0.12458682 169.00772772 -0.12458682 170.06644952 -0.13587171 C174.62914203 -0.08504598 177.72154062 0.89962113 181.61196899 3.26069641 C185.82436741 7.78786746 185.01180449 13.56916514 184.95254517 19.38496399 C184.95290677 20.52546802 184.95326838 21.66597204 184.95364094 22.8410368 C184.95140349 26.52927957 184.92856492 30.21706635 184.90493774 33.90522766 C184.90052639 36.18366782 184.89746616 38.46211101 184.89578247 40.74055481 C184.8800597 49.18481507 184.83817603 57.62901023 184.79946899 66.07319641 C184.73759399 84.94507141 184.67571899 103.81694641 184.61196899 123.26069641 C118.61196899 123.26069641 52.61196899 123.26069641 -15.38803101 123.26069641 C-15.47053101 104.40944641 -15.55303101 85.55819641 -15.63803101 66.13569641 C-15.67444702 60.18651184 -15.71086304 54.23732727 -15.74838257 48.10786438 C-15.76644897 40.8351593 -15.76644897 40.8351593 -15.76980591 37.42893982 C-15.7759425 35.05333967 -15.78999901 32.67775188 -15.81033325 30.30223083 C-15.83961658 26.70076397 -15.84365494 23.10005748 -15.84213257 19.49848938 C-15.856525 18.44271635 -15.87091743 17.38694332 -15.885746 16.29917717 C-15.85282531 10.48058926 -15.50346746 6.74851095 -11.38803101 2.26069641 C-7.80205668 -0.16642056 -4.18040786 -0.02269011 0 0 Z M-2.38803101 12.26069641 C-2.38803101 43.94069641 -2.38803101 75.62069641 -2.38803101 108.26069641 C55.03196899 108.26069641 112.45196899 108.26069641 171.61196899 108.26069641 C171.61196899 76.58069641 171.61196899 44.90069641 171.61196899 12.26069641 C114.19196899 12.26069641 56.77196899 12.26069641 -2.38803101 12.26069641 Z " fill="#0B0B0B" transform="translate(65.38803100585938,75.73930358886719)"/>
<path d="M0 0 C70.62 0 141.24 0 214 0 C214 4.95 214 9.9 214 15 C209.9330668 19.0669332 209.4147138 19.45844733 204.0798263 19.53497362 C203.28809772 19.52605073 202.49636915 19.51712785 201.6806488 19.50793457 C200.41075429 19.51729451 200.41075429 19.51729451 199.11520535 19.52684355 C196.2737059 19.54281958 193.4330588 19.53015143 190.59155273 19.51757812 C188.55644225 19.52299715 186.52133568 19.53011857 184.48623657 19.53881836 C178.95535913 19.55707948 173.42477958 19.5499729 167.89389682 19.53730202 C162.1123668 19.52719021 156.33086266 19.5365625 150.54933167 19.54284668 C140.84053965 19.5501278 131.13186926 19.54052253 121.4230957 19.52148438 C110.18833247 19.49970869 98.95385949 19.5067703 87.71910328 19.52879 C78.08251214 19.54692341 68.44600854 19.54951258 58.80940586 19.53903532 C53.0497172 19.53278986 47.29016512 19.53199379 41.53048515 19.54518127 C36.11726749 19.5567094 30.70442529 19.54876963 25.29124832 19.52560425 C23.30100313 19.52030116 21.31072651 19.52185811 19.3204937 19.53065491 C16.61068721 19.54153081 13.90209589 19.52794389 11.19236755 19.50793457 C10.39840826 19.51685746 9.60444897 19.52578034 8.7864303 19.53497362 C6.59076595 19.50336456 6.59076595 19.50336456 3 19 C0 15 0 15 0 0 Z " fill="#040404" transform="translate(43,205)"/>
<path d="M0 0 C57.42 0 114.84 0 174 0 C174 31.68 174 63.36 174 96 C116.58 96 59.16 96 0 96 C0 64.32 0 32.64 0 0 Z M7 7 C7 34.06 7 61.12 7 89 C59.8 89 112.6 89 167 89 C167 61.94 167 34.88 167 7 C114.2 7 61.4 7 7 7 Z " fill="#FDFDFD" transform="translate(63,88)"/>
<path d="M0 0 C4.40514758 1.1012869 5.44958674 2.09383512 8.546875 5.25390625 C9.39121094 6.10791016 10.23554687 6.96191406 11.10546875 7.84179688 C11.97816406 8.73962891 12.85085937 9.63746094 13.75 10.5625 C14.63816406 11.46419922 15.52632812 12.36589844 16.44140625 13.29492188 C18.63448315 15.52337098 20.82026044 17.75851593 23 20 C21.48623919 23.56764285 19.39486871 25.83706287 16.6484375 28.546875 C15.79765625 29.39121094 14.946875 30.23554688 14.0703125 31.10546875 C13.18085937 31.97816406 12.29140625 32.85085937 11.375 33.75 C10.4778125 34.63816406 9.580625 35.52632812 8.65625 36.44140625 C6.44192996 38.63216969 4.22307565 40.81812763 2 43 C-0.31 41.02 -2.62 39.04 -5 37 C-2.51099435 32.0219887 0.91552761 29.16701243 4.98046875 25.4375 C5.64691406 24.633125 6.31335938 23.82875 7 23 C6.66897578 19.8072436 5.544429 18.17986808 3.27734375 15.984375 C2.73916016 15.45585937 2.20097656 14.92734375 1.64648438 14.3828125 C1.08251953 13.84398437 0.51855469 13.30515625 -0.0625 12.75 C-0.91424805 11.91855469 -0.91424805 11.91855469 -1.78320312 11.0703125 C-3.18212469 9.70665786 -4.59019114 8.35239583 -6 7 C-4.02 4.69 -2.04 2.38 0 0 Z " fill="#F4F4F4" transform="translate(105,115)"/>
<path d="M0 0 C10.23 0 20.46 0 31 0 C31 3.3 31 6.6 31 10 C20.77 10 10.54 10 0 10 C0 6.7 0 3.4 0 0 Z " fill="#F7F7F7" transform="translate(133,149)"/>
<path d="M0 0 C11.22 0 22.44 0 34 0 C34.495 2.475 34.495 2.475 35 5 C23.12 5 11.24 5 -1 5 C-0.67 3.35 -0.34 1.7 0 0 Z " fill="#FDFDFD" transform="translate(133,212)"/>
</svg>
